<?xml version="1.0" encoding="UTF-8"?>
<svg xmlns="http://www.w3.org/2000/svg" viewBox="0 0 508 87">
  <g id="Layer_1" data-name="Layer 1">
    <g>
      <path class="letter" id="Creative-c" d="M37.66.78c1.96,0,3.47.7,4.53,2.11.85,1.11,1.27,2.46,1.27,4.04,0,2.84-.95,6.08-2.86,9.71-1.67,3.13-3.75,5.95-6.24,8.44-1.64,1.61-2.93,2.42-3.87,2.42-.62,0-1.19-.31-1.71-.92-.38-.44-.57-.94-.57-1.49,0-1.03.89-2.2,2.68-3.52,2.52-1.88,4.53-3.93,6.02-6.15,2.2-3.22,3.3-5.95,3.3-8.17,0-.91-.2-1.58-.59-2.02s-.99-.66-1.78-.66c-1.61,0-3.9,1.17-6.86,3.52-3.37,2.64-6.93,6.23-10.68,10.77-4.78,5.77-8.41,11.46-10.9,17.05-2.58,5.8-3.87,10.75-3.87,14.85,0,1.96.57,3.63,1.71,5.01,1.26,1.55,2.8,2.33,4.61,2.33,3.16,0,7.15-2.46,11.95-7.38,1.44-1.49,3.18-3.66,5.23-6.5,1.35-1.82,2.21-3.11,2.59-3.87.44-.85.95-1.27,1.54-1.27.64,0,.97.31.97.92,0,1.32-1.64,4.28-4.92,8.88-2.72,3.84-5.73,6.97-9.01,9.4-3.69,2.72-7.18,4.09-10.46,4.09s-6.08-1.54-7.95-4.61c-1.2-1.96-1.8-4.2-1.8-6.72,0-6.33,2.99-14.31,8.96-23.95,5.1-8.2,10.47-14.81,16.13-19.82C29.99,2.94,34.17.78,37.66.78Z" fill="#f2f0eb"/>
      <path class="letter" id="Creative-r" d="M43.68,42.84c2.87-3.08,6.18-6.08,9.93-9.01,1.35-1.05,2.78-2.04,4.31-2.94.76-.44,1.25-.66,1.45-.66.44,0,.88.32,1.32.97.26.35.4.67.4.97,0,.53-.56,1.25-1.67,2.15-2.99,2.37-4.48,4.16-4.48,5.36,0,.67.38,1.01,1.14,1.01,1.26,0,3.43-1.04,6.5-3.12.53-.35.97-.53,1.32-.53.23,0,.47.12.7.35.26.26.4.54.4.83,0,.88-1.23,2.23-3.69,4.04-2.58,1.93-5.02,2.9-7.34,2.9-.94,0-1.8-.25-2.59-.75-.67-.41-1.01-1.14-1.01-2.2,0-.73.31-1.57.92-2.5-2.31,1.64-5.04,4.45-8.17,8.44-1.82,2.46-3.62,5.49-5.41,9.1-.67,1.35-1.51,2.02-2.5,2.02-1.08,0-1.63-.51-1.63-1.54s.85-3.66,2.55-8c2.52-6.45,5.16-11.44,7.91-14.99,1.7-2.2,3.12-3.3,4.26-3.3.38,0,.73.12,1.05.35.38.29.57.66.57,1.1s-.29,1.05-.88,1.85c-.12.15-.89,1.13-2.33,2.94-1.32,1.73-2.33,3.44-3.03,5.14Z" fill="#f2f0eb"/>
      <path class="letter" id="Creative-e1" d="M66.62,48.86v.79c0,.64.16,1.2.48,1.67.73,1.08,1.93,1.63,3.6,1.63,3.66,0,7.9-2.81,12.7-8.44.85-.97,1.57-1.45,2.15-1.45.32,0,.62.16.88.48.18.23.26.45.26.66,0,1.14-1.41,3.08-4.22,5.8-2.2,2.14-4.54,3.88-7.03,5.23-2.49,1.35-4.81,2.02-6.94,2.02s-3.93-.76-5.19-2.29c-.85-1.05-1.27-2.49-1.27-4.31,0-4.95,2.33-9.8,6.99-14.55,3.78-3.87,7.08-5.8,9.89-5.8.76,0,1.45.23,2.07.7.76.62,1.14,1.42,1.14,2.42,0,1.55-.72,3.46-2.15,5.71-2.96,4.69-7.41,7.92-13.36,9.71ZM67.59,45.43c2.05-.7,3.66-1.49,4.83-2.37,2.05-1.58,3.68-3.37,4.88-5.36.44-.7.66-1.33.66-1.89,0-.59-.28-.88-.83-.88-.76,0-1.85.57-3.25,1.71-2.52,2.02-4.61,4.95-6.28,8.79Z" fill="#f2f0eb"/>
      <path id="Creative-a" d="M100.81,50.04c-.97,1.7-1.92,3.13-2.86,4.31-1.85,2.29-3.68,3.43-5.49,3.43-1.58,0-2.81-.75-3.69-2.24-.56-.97-.83-2.11-.83-3.43,0-3.25,1.03-6.84,3.08-10.77,2.29-4.37,5.04-7.72,8.26-10.06,2.11-1.52,4.15-2.29,6.11-2.29,1.23,0,2.26.38,3.08,1.14.7.67,1.05,1.44,1.05,2.29,0,.64-.25,1.54-.75,2.68.44.62.66,1.16.66,1.63,0,.62-.41,1.63-1.23,3.03-.85,1.44-1.7,3.34-2.55,5.71-.91,2.52-1.36,4.54-1.36,6.06,0,1.23.37,2.24,1.1,3.03.2.21.81.54,1.8,1.01.73.35,1.1.97,1.1,1.85,0,.56-.21,1.01-.62,1.36-.44.38-.95.57-1.54.57-1.58,0-2.94-.7-4.09-2.11-.94-1.14-1.41-2.58-1.41-4.31,0-.59.06-1.55.18-2.9ZM106.3,35.59c-.35-.64-.73-1.12-1.14-1.43-.41-.31-.85-.46-1.32-.46-2.23,0-4.64,1.95-7.25,5.84-2.87,4.31-4.31,7.95-4.31,10.94,0,.73.14,1.29.42,1.67.28.38.7.57,1.25.57,1.41,0,3.05-1.49,4.92-4.48,1.05-1.64,2.36-4.06,3.91-7.25,1.03-2.08,1.77-3.46,2.24-4.13.23-.35.66-.78,1.27-1.27Z" fill="#f2f0eb"/>
      <path id="Creative-t" d="M127.27,28.99c-1.9,2.96-3.66,6.27-5.27,9.93-2.31,5.21-3.47,9.11-3.47,11.69,0,.73.15,1.29.46,1.67s.77.57,1.38.57c1.46,0,3.24-1.38,5.32-4.13,1.32-1.7,2.49-3.4,3.52-5.1.56-.97,1.16-1.45,1.8-1.45.38,0,.7.13.97.4.23.26.35.53.35.79,0,1.08-1.42,3.5-4.26,7.25-3.4,4.51-6.5,6.77-9.32,6.77-1.49,0-2.74-.69-3.74-2.07-.62-.88-.92-2.12-.92-3.74,0-3.54,1.03-7.68,3.08-12.39.5-1.17,1.87-4,4.13-8.48-.79.21-1.39.31-1.8.31-.62,0-1.16-.15-1.63-.44-.64-.41-.97-.92-.97-1.54,0-.73.42-1.32,1.27-1.76.23-.12,1.32-.31,3.25-.57.7-.12,1.73-.4,3.08-.83,1.03-1.85,2.7-4.35,5.01-7.51,1.29-1.76,2.18-2.9,2.68-3.43.7-.73,1.32-1.1,1.85-1.1.38,0,.76.21,1.14.62.35.38.53.76.53,1.14,0,.76-.82,2.27-2.46,4.53-1.08,1.46-1.89,2.65-2.42,3.56,3.25-.88,5.58-1.32,6.99-1.32,1.61,0,2.42.67,2.42,2.02,0,.67-.28,1.17-.83,1.49-.29.18-1.05.32-2.29.44-.5-.03-2.71.53-6.64,1.67-1.08.32-2.15.66-3.21,1.01Z" fill="#f2f0eb"/>
      <path id="Creative-i" d="M144.67,30.97c.5,0,.91.19,1.23.57.23.32.35.64.35.97,0,.53-.42,1.41-1.27,2.64-3.05,4.72-5.21,8.6-6.5,11.65-1.38,3.13-2.59,6.36-3.65,9.67-.47,1.46-1.2,2.2-2.2,2.2-.59,0-1.05-.23-1.41-.7-.32-.38-.48-.79-.48-1.23,0-.88.94-3.81,2.81-8.79,1.47-3.93,3.84-8.26,7.12-13.01,1.05-1.55,1.85-2.59,2.37-3.12.53-.56,1.07-.83,1.63-.83ZM153.02,14.67c1.32,0,1.98.67,1.98,2.02,0,1.23-.64,2.59-1.93,4.09-1.23,1.44-2.42,2.15-3.56,2.15-.56,0-1.01-.21-1.36-.62-.35-.38-.53-.85-.53-1.41,0-1.41.78-2.9,2.33-4.48,1.14-1.17,2.17-1.76,3.08-1.76Z" fill="#f2f0eb"/>
      <path id="Creative-v" d="M161.24,45.3c-1.79,3.08-3.33,5.36-4.61,6.86-3.14,3.69-5.74,5.54-7.82,5.54-1.26,0-2.23-.69-2.9-2.07-.47-.91-.7-1.86-.7-2.86,0-1.93.83-4.73,2.5-8.39,1.49-3.19,2.75-5.71,3.78-7.56.76-1.32,1.22-2.18,1.36-2.59.35-.79.66-1.39.92-1.8.38-.62.91-.92,1.58-.92.35,0,.66.15.92.44.29.35.44.76.44,1.23,0,1.32-1.19,4.26-3.56,8.83-2.37,4.51-3.56,7.5-3.56,8.96,0,.94.37,1.41,1.1,1.41,1.26,0,3.05-1.64,5.36-4.92,1.03-1.46,2.09-3.33,3.21-5.58-.03-.73-.04-1.29-.04-1.67,0-2.2.41-4.1,1.23-5.71,1.05-2.08,2.48-3.12,4.26-3.12,1.03,0,1.54.62,1.54,1.85,0,1.96-1.03,4.85-3.08,8.66.59.12,1.05.18,1.41.18.97,0,2.23-.62,3.78-1.85,1.23-1,2.04-1.49,2.42-1.49.32,0,.66.19,1.01.57.26.32.4.64.4.97,0,1.05-.73,2.24-2.2,3.56-1.7,1.49-3.63,2.24-5.8,2.24-.85,0-1.83-.25-2.94-.75Z" fill="#f2f0eb"/>
      <path id="Creative-e2" d="M173.36,48.86v.79c0,.64.16,1.2.48,1.67.73,1.08,1.93,1.63,3.6,1.63,3.66,0,7.9-2.81,12.7-8.44.85-.97,1.57-1.45,2.15-1.45.32,0,.62.16.88.48.18.23.26.45.26.66,0,1.14-1.41,3.08-4.22,5.8-2.2,2.14-4.54,3.88-7.03,5.23-2.49,1.35-4.81,2.02-6.94,2.02s-3.93-.76-5.19-2.29c-.85-1.05-1.27-2.49-1.27-4.31,0-4.95,2.33-9.8,6.99-14.55,3.78-3.87,7.08-5.8,9.89-5.8.76,0,1.45.23,2.07.7.76.62,1.14,1.42,1.14,2.42,0,1.55-.72,3.46-2.15,5.71-2.96,4.69-7.41,7.92-13.36,9.71ZM174.33,45.43c2.05-.7,3.66-1.49,4.83-2.37,2.05-1.58,3.68-3.37,4.88-5.36.44-.7.66-1.33.66-1.89,0-.59-.28-.88-.83-.88-.76,0-1.85.57-3.25,1.71-2.52,2.02-4.61,4.95-6.28,8.79Z" fill="#f2f0eb"/>
      <path id="Programmer-p" d="M234.49,36.29l-.62,1.32c-3.05,6.33-5.08,10.84-6.11,13.54-1.58,4.22-2.48,6.68-2.68,7.38-.62,1.96-1.42,2.94-2.42,2.94-.7,0-1.3-.32-1.8-.97-.44-.56-.66-1.16-.66-1.8,0-2.52,3.24-10.47,9.71-23.86-1.17-.88-1.76-1.76-1.76-2.64,0-.67.29-1.26.88-1.76.5-.41,1.04-.62,1.63-.62.41,0,.95.1,1.63.31,4.77-9.08,7.57-14.87,8.39-17.36-.73.41-1.67,1-2.81,1.76-.64.41-1.22.62-1.71.62-.56,0-1.01-.28-1.36-.83-.23-.38-.35-.78-.35-1.19,0-1.38,1.19-2.86,3.56-4.44,1.9-1.26,3.68-2.31,5.32-3.16.26-.7.42-1.19.48-1.45.29-1.11.6-1.86.92-2.24.32-.38.82-.57,1.49-.57,1.38,0,2.07.76,2.07,2.29,2.02-.59,3.81-1.03,5.36-1.32,1.55-.29,2.87-.44,3.96-.44,2.84,0,5.24,1.08,7.21,3.25,1.85,2.05,2.77,4.35,2.77,6.9,0,4.42-1.85,8.85-5.54,13.27-3.16,3.75-7.09,6.68-11.78,8.79-4.04,1.79-8.09,2.68-12.13,2.68-.97,0-2.18-.13-3.65-.4ZM246.8,9.48c-.97,2.9-2.55,6.62-4.75,11.16-2.7,5.51-4.44,9.11-5.23,10.81,1.61.29,2.74.44,3.38.44,3.34,0,7.24-1.35,11.69-4.04,4.31-2.64,7.68-5.9,10.11-9.8,1.49-2.37,2.24-4.48,2.24-6.33,0-1.67-.56-2.92-1.69-3.76-1.13-.84-2.83-1.25-5.12-1.25-1.73,0-3.48.23-5.25.68-1.77.46-3.57,1.15-5.38,2.09Z" fill="#f2f0eb"/>
      <path id="Programmer-r1" d="M264.73,42.84c2.87-3.08,6.18-6.08,9.93-9.01,1.35-1.05,2.78-2.04,4.31-2.94.76-.44,1.25-.66,1.45-.66.44,0,.88.32,1.32.97.26.35.4.67.4.97,0,.53-.56,1.25-1.67,2.15-2.99,2.37-4.48,4.16-4.48,5.36,0,.67.38,1.01,1.14,1.01,1.26,0,3.43-1.04,6.5-3.12.53-.35.97-.53,1.32-.53.23,0,.47.12.7.35.26.26.4.54.4.83,0,.88-1.23,2.23-3.69,4.04-2.58,1.93-5.03,2.9-7.34,2.9-.94,0-1.8-.25-2.59-.75-.67-.41-1.01-1.14-1.01-2.2,0-.73.31-1.57.92-2.5-2.31,1.64-5.04,4.45-8.17,8.44-1.82,2.46-3.62,5.49-5.41,9.1-.67,1.35-1.51,2.02-2.5,2.02-1.08,0-1.63-.51-1.63-1.54s.85-3.66,2.55-8c2.52-6.45,5.16-11.44,7.91-14.99,1.7-2.2,3.12-3.3,4.26-3.3.38,0,.73.12,1.05.35.38.29.57.66.57,1.1s-.29,1.05-.88,1.85c-.12.15-.89,1.13-2.33,2.94-1.32,1.73-2.33,3.44-3.03,5.14Z" fill="#f2f0eb"/>
      <path id="Programmer-o" d="M301.2,28.95c2.4,0,3.6,1.46,3.6,4.39,0,3.9-1.8,8.83-5.41,14.81-3.93,6.47-7.72,9.71-11.38,9.71-1.7,0-2.94-.79-3.74-2.37-.41-.79-.62-1.74-.62-2.86,0-3.75,1.29-7.82,3.87-12.22,2.4-4.07,5.23-7.24,8.48-9.49,1.9-1.32,3.63-1.98,5.19-1.98ZM296.63,45.56c-.73-.59-1.1-1.04-1.1-1.36,0-.23.47-.88,1.41-1.93,2.64-2.96,3.96-5.35,3.96-7.16,0-.23-.07-.47-.22-.7-.24-.44-.6-.66-1.1-.66-.94,0-2.31.91-4.13,2.72-2.34,2.34-4.13,4.76-5.36,7.25-1.44,2.84-2.15,5.2-2.15,7.08,0,.5.13.94.4,1.32.38.53.86.79,1.45.79,1.41,0,2.92-1.05,4.53-3.16.7-.88,1.27-1.79,1.71-2.72s.64-1.42.62-1.45Z" fill="#f2f0eb"/>
      <path id="Programmer-g" d="M318.25,53.52c3.13-2.29,5.46-4.37,6.99-6.24,2.26-2.72,3.85-4.94,4.79-6.64.47-.76.95-1.14,1.45-1.14.7,0,1.05.34,1.05,1.01,0,.79-.56,2.11-1.67,3.96-3.46,5.62-8.64,10.53-15.56,14.72-3.22,6.74-5.6,11.31-7.12,13.71-4.04,6.33-7.85,9.49-11.43,9.49-1.88,0-3.22-.73-4.04-2.2-.47-.85-.7-1.82-.7-2.9,0-4.6,2.96-9.01,8.88-13.23.94-.7,4.73-2.9,11.38-6.59,1.29-2.72,2.29-4.86,2.99-6.42-3.08,3.22-5.62,4.83-7.65,4.83-1.26,0-2.24-.64-2.94-1.93-.44-.85-.66-1.73-.66-2.64,0-2.11.86-4.82,2.59-8.13,2.46-4.78,5.42-8.55,8.88-11.34,2.9-2.31,5.46-3.47,7.69-3.47,1.14,0,2.12.42,2.94,1.27.56.56.83,1.38.83,2.46,0,1.35-.46,3.02-1.36,5.01.67.64,1.01,1.13,1.01,1.45,0,.21-.15.5-.44.88-.79,1.08-2.07,3.12-3.82,6.11-1.55,2.61-2.92,5.26-4.09,7.95ZM309.64,62.57c-3.87,1.64-7.28,4.13-10.24,7.47-1.38,1.55-2.36,3.19-2.94,4.92-.18.53-.26.97-.26,1.32,0,.38.09.72.26,1.01.32.53.78.79,1.36.79,1.82,0,3.94-1.95,6.37-5.84,2.11-3.37,3.93-6.59,5.45-9.67ZM317.94,43.36c-.41-.44-.62-.75-.62-.92,0-.26.22-.6.66-1.01,1.46-1.41,2.65-2.87,3.56-4.39.73-1.2,1.1-2.14,1.1-2.81,0-.79-.37-1.19-1.1-1.19-1.26,0-3.06,1.2-5.41,3.6-2.78,2.84-4.95,6.02-6.5,9.54-.76,1.76-1.14,3.11-1.14,4.04,0,.53.12.92.35,1.19.23.26.57.4,1.01.4,1.03,0,2.46-1.05,4.31-3.16,1.17-1.35,2.17-2.67,2.99-3.96.56-.85.82-1.29.79-1.32Z" fill="#f2f0eb"/>
      <path id="Programmer-r2" d="M340.58,42.84c2.87-3.08,6.18-6.08,9.93-9.01,1.35-1.05,2.78-2.04,4.31-2.94.76-.44,1.25-.66,1.45-.66.44,0,.88.32,1.32.97.26.35.4.67.4.97,0,.53-.56,1.25-1.67,2.15-2.99,2.37-4.48,4.16-4.48,5.36,0,.67.38,1.01,1.14,1.01,1.26,0,3.43-1.04,6.5-3.12.53-.35.97-.53,1.32-.53.23,0,.47.12.7.35.26.26.4.54.4.83,0,.88-1.23,2.23-3.69,4.04-2.58,1.93-5.03,2.9-7.34,2.9-.94,0-1.8-.25-2.59-.75-.67-.41-1.01-1.14-1.01-2.2,0-.73.31-1.57.92-2.5-2.31,1.64-5.04,4.45-8.17,8.44-1.82,2.46-3.62,5.49-5.41,9.1-.67,1.35-1.51,2.02-2.5,2.02-1.08,0-1.63-.51-1.63-1.54s.85-3.66,2.55-8c2.52-6.45,5.16-11.44,7.91-14.99,1.7-2.2,3.12-3.3,4.26-3.3.38,0,.73.12,1.05.35.38.29.57.66.57,1.1s-.29,1.05-.88,1.85c-.12.15-.89,1.13-2.33,2.94-1.32,1.73-2.33,3.44-3.03,5.14Z" fill="#f2f0eb"/>
      <path id="Programmer-a" d="M373.01,50.04c-.97,1.7-1.92,3.13-2.86,4.31-1.85,2.29-3.68,3.43-5.49,3.43-1.58,0-2.81-.75-3.69-2.24-.56-.97-.83-2.11-.83-3.43,0-3.25,1.03-6.84,3.08-10.77,2.29-4.37,5.04-7.72,8.26-10.06,2.11-1.52,4.15-2.29,6.11-2.29,1.23,0,2.26.38,3.08,1.14.7.67,1.05,1.44,1.05,2.29,0,.64-.25,1.54-.75,2.68.44.62.66,1.16.66,1.63,0,.62-.41,1.63-1.23,3.03-.85,1.44-1.7,3.34-2.55,5.71-.91,2.52-1.36,4.54-1.36,6.06,0,1.23.37,2.24,1.1,3.03.2.21.81.54,1.8,1.01.73.35,1.1.97,1.1,1.85,0,.56-.21,1.01-.62,1.36-.44.38-.95.57-1.54.57-1.58,0-2.94-.7-4.09-2.11-.94-1.14-1.41-2.58-1.41-4.31,0-.59.06-1.55.18-2.9ZM378.5,35.59c-.35-.64-.73-1.12-1.14-1.43-.41-.31-.85-.46-1.32-.46-2.23,0-4.64,1.95-7.25,5.84-2.87,4.31-4.31,7.95-4.31,10.94,0,.73.14,1.29.42,1.67s.7.57,1.25.57c1.41,0,3.05-1.49,4.92-4.48,1.05-1.64,2.36-4.06,3.91-7.25,1.03-2.08,1.77-3.46,2.24-4.13.23-.35.66-.78,1.27-1.27Z" fill="#f2f0eb"/>
      <path id="Programmer-m1" d="M390.94,42.66c2.46-2.58,4.63-4.6,6.5-6.06,2.84-2.2,4.75-3.3,5.71-3.3.47,0,.88.18,1.23.53.32.32.48.67.48,1.05,0,.56-.51,1.46-1.54,2.72-1.58,1.99-2.68,3.69-3.3,5.1,6.86-6.88,11.54-10.33,14.06-10.33.53,0,.98.16,1.36.48.41.35.62.79.62,1.32,0,.82-.63,1.88-1.89,3.16-5.54,5.71-8.31,10.4-8.31,14.06,0,1.49.26,2.56.79,3.21l1.14,1.45c.23.26.35.6.35,1.01,0,.47-.19.91-.57,1.32-.44.47-.94.7-1.49.7-.97,0-1.86-.62-2.68-1.85-1-1.46-1.49-3.19-1.49-5.19,0-2.67.76-5.36,2.29-8.09.53-.97,1.41-2.26,2.64-3.87-2.49,1.88-5.03,4.45-7.6,7.73-1.76,2.23-3.34,4.72-4.75,7.47-.67,1.32-1.47,1.98-2.37,1.98-1,0-1.49-.56-1.49-1.67,0-1.2.82-3.68,2.46-7.43.94-2.14,2.09-4.39,3.47-6.77-5.01,3.87-8.77,9.11-11.29,15.73-.62,1.46-1.44,2.2-2.46,2.2-.47,0-.85-.18-1.14-.53-.32-.35-.48-.78-.48-1.27,0-1.73.97-4.85,2.9-9.36,2.02-4.78,4.31-9.07,6.86-12.88,1.76-2.67,3.12-4,4.09-4,.88,0,1.32.47,1.32,1.41,0,.41-.54,1.44-1.63,3.08-1.91,3.08-3.16,5.36-3.78,6.86Z" fill="#f2f0eb"/>
      <path id="Programmer-m2" d="M422.89,42.66c2.46-2.58,4.63-4.6,6.5-6.06,2.84-2.2,4.75-3.3,5.71-3.3.47,0,.88.18,1.23.53.32.32.48.67.48,1.05,0,.56-.51,1.46-1.54,2.72-1.58,1.99-2.68,3.69-3.3,5.1,6.86-6.88,11.54-10.33,14.06-10.33.53,0,.98.16,1.36.48.41.35.62.79.62,1.32,0,.82-.63,1.88-1.89,3.16-5.54,5.71-8.31,10.4-8.31,14.06,0,1.49.26,2.56.79,3.21l1.14,1.45c.23.26.35.6.35,1.01,0,.47-.19.91-.57,1.32-.44.47-.94.7-1.49.7-.97,0-1.86-.62-2.68-1.85-1-1.46-1.49-3.19-1.49-5.19,0-2.67.76-5.36,2.29-8.09.53-.97,1.41-2.26,2.64-3.87-2.49,1.88-5.03,4.45-7.6,7.73-1.76,2.23-3.34,4.72-4.75,7.47-.67,1.32-1.47,1.98-2.37,1.98-1,0-1.49-.56-1.49-1.67,0-1.2.82-3.68,2.46-7.43.94-2.14,2.09-4.39,3.47-6.77-5.01,3.87-8.77,9.11-11.29,15.73-.62,1.46-1.44,2.2-2.46,2.2-.47,0-.85-.18-1.14-.53-.32-.35-.48-.78-.48-1.27,0-1.73.97-4.85,2.9-9.36,2.02-4.78,4.31-9.07,6.86-12.88,1.76-2.67,3.12-4,4.09-4,.88,0,1.32.47,1.32,1.41,0,.41-.54,1.44-1.63,3.08-1.91,3.08-3.16,5.36-3.78,6.86Z" fill="#f2f0eb"/>
      <path id="Programmer-e" d="M450.7,48.86v.79c0,.64.16,1.2.48,1.67.73,1.08,1.93,1.63,3.6,1.63,3.66,0,7.89-2.81,12.7-8.44.85-.97,1.57-1.45,2.15-1.45.32,0,.62.16.88.48.18.23.26.45.26.66,0,1.14-1.41,3.08-4.22,5.8-2.2,2.14-4.54,3.88-7.03,5.23-2.49,1.35-4.81,2.02-6.94,2.02s-3.93-.76-5.19-2.29c-.85-1.05-1.27-2.49-1.27-4.31,0-4.95,2.33-9.8,6.99-14.55,3.78-3.87,7.08-5.8,9.89-5.8.76,0,1.45.23,2.07.7.76.62,1.14,1.42,1.14,2.42,0,1.55-.72,3.46-2.15,5.71-2.96,4.69-7.41,7.92-13.36,9.71ZM451.67,45.43c2.05-.7,3.66-1.49,4.83-2.37,2.05-1.58,3.68-3.37,4.88-5.36.44-.7.66-1.33.66-1.89,0-.59-.28-.88-.83-.88-.76,0-1.85.57-3.25,1.71-2.52,2.02-4.61,4.95-6.28,8.79Z" fill="#f2f0eb"/>
      <path id="Programmer-r3" d="M479.97,42.84c2.87-3.08,6.18-6.08,9.93-9.01,1.35-1.05,2.78-2.04,4.31-2.94.76-.44,1.25-.66,1.45-.66.44,0,.88.32,1.32.97.26.35.4.67.4.97,0,.53-.56,1.25-1.67,2.15-2.99,2.37-4.48,4.16-4.48,5.36,0,.67.38,1.01,1.14,1.01,1.26,0,3.43-1.04,6.5-3.12.53-.35.97-.53,1.32-.53.23,0,.47.12.7.35.26.26.4.54.4.83,0,.88-1.23,2.23-3.69,4.04-2.58,1.93-5.03,2.9-7.34,2.9-.94,0-1.8-.25-2.59-.75-.67-.41-1.01-1.14-1.01-2.2,0-.73.31-1.57.92-2.5-2.31,1.64-5.04,4.45-8.17,8.44-1.82,2.46-3.62,5.49-5.41,9.1-.67,1.35-1.51,2.02-2.5,2.02-1.08,0-1.63-.51-1.63-1.54s.85-3.66,2.55-8c2.52-6.45,5.16-11.44,7.91-14.99,1.7-2.2,3.12-3.3,4.26-3.3.38,0,.73.12,1.05.35.38.29.57.66.57,1.1s-.29,1.05-.88,1.85c-.12.15-.89,1.13-2.33,2.94-1.32,1.73-2.33,3.44-3.03,5.14Z" fill="#f2f0eb"/>
    </g>
  </g>
  <g id="Layer_3" data-name="Layer 3">
    <path id="Mask-creative-c" d="M30.17,25.48s6-4,8-8,6-12,2-14-13,2-24,16C5.17,33.48-1.83,52.48,7.17,59.48c7.45,5.79,25.55-18.5,25.55-18.5" fill="none" stroke="#f2f0eb" stroke-linecap="round" stroke-miterlimit="10" stroke-width="6"/>
    <path id="Mask-creative-r" d="M48.15,33.77s-6.53,5.95-11.9,23.37,7.75-16.59,22.7-25.08c14.72-9.07-23.28,20.93,4.9,6.85" fill="none" stroke="#f2f0eb" stroke-linecap="round" stroke-miterlimit="10" stroke-width="6"/>
    <path id="Mask-creative-e1" d="M65,47.47s16.16-4.99,14.67-14.49c-1.49-5.5-24.49,19.5-12.49,21.5s17.53-9.5,17.53-9.5" fill="none" stroke="#f2f0eb" stroke-linecap="round" stroke-miterlimit="10" stroke-width="6"/>
    <path id="Mask-creative-a" d="M106.74,33.37c1-10-24,17-15.19,21.4,3.01,1.04,9.19-10.03,15.19-18.72s-13.34,22.16-1.17,20.74" fill="none" stroke="#f2f0eb" stroke-linecap="round" stroke-miterlimit="10" stroke-width="6"/>
    <g id="Mask-creative-t">
      <path id="Mask-creative-t-line2" d="M133.67,15.98s-22.5,32.5-16,39c3.16,3.16,13.07-11.31,13.07-11.31" fill="none" stroke="#f2f0eb" stroke-linecap="round" stroke-miterlimit="10" stroke-width="6"/>
      <line id="Mask-creative-t-line2-2" data-name="Mask-creative-t-line2" x1="118.49" y1="28.99" x2="138.49" y2="24" fill="none" stroke="#f2f0eb" stroke-linecap="round" stroke-miterlimit="10" stroke-width="6"/>
    </g>
    <g id="Mask-creative-i">
      <path id="Mask-creative-i-line1" d="M144.67,32.98s-10,12-12,24" fill="none" stroke="#f2f0eb" stroke-linecap="round" stroke-miterlimit="10" stroke-width="6"/>
      <path id="Mask-creative-i-line2" d="M150.3,20.8s5.37-7.82.37-.82" fill="none" stroke="#f2f0eb" stroke-linecap="round" stroke-miterlimit="10" stroke-width="6"/>
    </g>
    <path id="Mask-creative-v" d="M155,33.7s-12.39,21.19-6.36,21.74,16.03-23.45,15.03-21.45c0,0-8.06,17,6.47,7" fill="none" stroke="#f2f0eb" stroke-linecap="round" stroke-miterlimit="10" stroke-width="6"/>
    <path id="Mask-creative-e2" d="M171.65,47.51s16.16-4.99,14.67-14.49c-1.49-5.5-24.49,19.5-12.49,21.5s17.53-9.5,17.53-9.5" fill="none" stroke="#f2f0eb" stroke-linecap="round" stroke-miterlimit="10" stroke-width="6"/>
    <g id="Mask-programmer-p">
      <path id="Mask-programmer-p-line1" d="M222.75,57.69c4.58-14.79,23.42-54.21,23.42-54.21" fill="none" stroke="#f2f0eb" stroke-linecap="round" stroke-miterlimit="10" stroke-width="6"/>
      <path id="Mask-programmer-p-line2" d="M236.82,12.19s32.13-18.17,28.84,0c-3.49,19.29-29.63,25.51-34.56,20.4" fill="none" stroke="#f2f0eb" stroke-linecap="round" stroke-miterlimit="10" stroke-width="6"/>
    </g>
    <path id="Mask-programmer-r1" d="M267.86,33.96s-6.53,5.95-11.9,23.37,7.75-16.59,22.7-25.08c14.72-9.07-23.28,20.93,4.9,6.85" fill="none" stroke="#f2f0eb" stroke-linecap="round" stroke-miterlimit="10" stroke-width="6"/>
    <path id="Mask-programmer-o" d="M297.92,44.24s7.45-6.49,3.6-12.87-22.03,18.92-14.69,24.02,14.06-15.21,14.06-15.21" fill="none" stroke="#f2f0eb" stroke-linecap="round" stroke-miterlimit="10" stroke-width="6"/>
    <path id="Mask-programmer-g" d="M319.23,42.98s6-5.52,5.47-12.01-23.03,13.35-17.28,21.93,15.98-12.72,15.98-12.72c0,0-20.23,43.3-26.23,40.3s-.79-14.42,15.1-21.21,18.9-17.79,18.9-17.79" fill="none" stroke="#f2f0eb" stroke-linecap="round" stroke-miterlimit="10" stroke-width="6"/>
    <path id="Mask-programmer-r2" d="M344.78,34.58s-6.53,5.95-11.9,23.37,7.75-16.59,22.7-25.08c14.94-8.5-21.14,20.19,4.9,6.85" fill="none" stroke="#f2f0eb" stroke-linecap="round" stroke-miterlimit="10" stroke-width="6"/>
    <path id="Mask-programmer-a" d="M378.91,33.47c1-10-24,17-15.19,21.4,3.01,1.04,9.19-10.03,15.19-18.72s-13.34,22.16-1.17,20.74" fill="none" stroke="#f2f0eb" stroke-linecap="round" stroke-miterlimit="10" stroke-width="6"/>
    <path id="Mask-programmer-m1" d="M394.21,33.04c-6.53,8.95-12.74,26.48-11.14,24.21s10.6-19.27,18.6-21.27-8,8-9,19c-1,2,8-17,20-20,4-1-14.7,10.94-6.85,22.47" fill="none" stroke="#f2f0eb" stroke-linecap="round" stroke-miterlimit="10" stroke-width="6"/>
    <path id="Mask-programmer-m2" d="M426.6,32.13c-6.53,8.95-12.74,26.48-11.14,24.21s10.6-19.27,18.6-21.27-8,8-9,19c-1,2,8-17,20-20,4-1-14.7,10.94-6.85,22.47" fill="none" stroke="#f2f0eb" stroke-linecap="round" stroke-miterlimit="10" stroke-width="6"/>
    <path id="Mask-programmer-e" d="M448.9,48.03s16.16-4.99,14.67-14.49c-1.49-5.5-24.49,19.5-12.49,21.5s17.53-9.5,17.53-9.5" fill="none" stroke="#f2f0eb" stroke-linecap="round" stroke-miterlimit="10" stroke-width="6"/>
    <path id="Mask-programmer-r3" d="M484,34.03s-6.64,5.83-12.3,23.15c-5.67,17.32,8.04-16.45,23.13-24.68,15.09-8.23-21.49,19.82,4.78,6.93" fill="none" stroke="#f2f0eb" stroke-linecap="round" stroke-miterlimit="10" stroke-width="6"/>
  </g>
</svg>