<?xml version="1.0" encoding="UTF-8"?>
<svg id="Layer_1" data-name="Layer 1" xmlns="http://www.w3.org/2000/svg" viewBox="0 0 479.42 705.03">
  <defs>
    <style>
      .cls-1 {
        fill: #cc793a;
      }
    </style>
  </defs>
  <path class="cls-1" d="M479.42,677.06l-3.45-391.52-55.45,27.68-.25,131.61-.23-.1c-31.37,25.49-61.78,36.03-73.18,39.59,0,0-31.88,9.8-64.84,9.8-19.95,0-39.27-2.69-57.63-7.71l-1.45-172.91-52.63,27.68-.22,122.05c-63.58-38.1-106.14-107.66-106.14-187.17,0-120.43,97.63-218.07,218.07-218.07,32.48,0,64.84,9.8,64.84,9.8,16.95,5.65,38.63,11.31,73.72,40l52.63-27.68C311.51-93.48-8.32,34.74.17,276.05c-4.23,119.74,72.08,211.28,169.8,252.29l-.27,149.82,56.53,26.87-1.34-159.5c65.83,13.96,135.98,5.85,195.25-30.07l-.26,134.72,59.55,26.87Z"/>
</svg>