<?xml version="1.0" encoding="UTF-8"?>
<svg xmlns="http://www.w3.org/2000/svg" xmlns:xlink="http://www.w3.org/1999/xlink" viewBox="0 0 705.03 705.03">
  <defs>
    <style>
      .cls-1 {
        opacity: .24;
      }

      .cls-1, .cls-2, .cls-3, .cls-4 {
        stroke: #183761;
        stroke-miterlimit: 10;
      }

      .cls-1, .cls-2, .cls-4 {
        fill: #fff;
      }

      .cls-2 {
        opacity: .57;
      }

      .cls-3 {
        fill: #15294a;
      }

      .cls-5 {
        fill: url(#linear-gradient);
      }
    </style>
    <linearGradient id="linear-gradient" x1="165.73" y1="332.36" x2="568.49" y2="332.36" gradientUnits="userSpaceOnUse">
      <stop offset="0" stop-color="#183a63"/>
      <stop offset="1" stop-color="#066489"/>
      <stop offset="1" stop-color="#047a9b"/>
    </linearGradient>
  </defs>
  <g id="Layer_2" data-name="Layer 2">
    <rect class="cls-3" width="705.03" height="705.03"/>
  </g>
  <g id="Layer_1" data-name="Layer 1">
    <path class="cls-1" d="M539.3,645.32l-2.9-328.91-46.58,23.25-.21,110.57-.19-.08c-26.36,21.41-51.9,30.27-61.48,33.26,0,0-26.78,8.23-54.47,8.23-16.76,0-32.99-2.26-48.41-6.48l-1.22-145.26-44.21,23.25-.19,102.53c-53.41-32.01-89.16-90.45-89.16-157.24,0-101.18,82.02-183.2,183.2-183.2,27.29,0,54.47,8.24,54.47,8.24,14.24,4.75,32.45,9.5,61.93,33.6l44.21-23.25C398.25-2,129.56,105.71,136.69,308.44c-3.56,100.59,60.55,177.49,142.65,211.95l-.23,125.86,47.49,22.58-1.12-134c55.31,11.73,114.23,4.91,164.02-25.26l-.22,113.18,50.03,22.58Z"/>
    <path class="cls-2" d="M547.49,633.81l-2.9-328.91-46.58,23.25-.21,110.57-.19-.08c-26.36,21.41-51.9,30.27-61.48,33.26,0,0-26.78,8.23-54.47,8.23-16.76,0-32.99-2.26-48.41-6.48l-1.22-145.26-44.21,23.25-.19,102.53c-53.41-32.01-89.16-90.45-89.16-157.24,0-101.18,82.02-183.2,183.2-183.2,27.29,0,54.47,8.24,54.47,8.24,14.24,4.75,32.45,9.5,61.93,33.6l44.21-23.25C406.43-13.51,137.74,94.2,144.87,296.93c-3.56,100.59,60.55,177.49,142.65,211.95l-.23,125.86,47.49,22.58-1.12-134c55.31,11.73,114.23,4.91,164.02-25.26l-.22,113.18,50.03,22.58Z"/>
    <path class="cls-4" d="M558.43,619.98l-2.9-328.91-46.58,23.25-.21,110.57-.19-.08c-26.36,21.41-51.9,30.27-61.48,33.26,0,0-26.78,8.23-54.47,8.23-16.76,0-32.99-2.26-48.41-6.48l-1.22-145.26-44.21,23.25-.19,102.53c-53.41-32.01-89.16-90.45-89.16-157.24,0-101.18,82.02-183.2,183.2-183.2,27.29,0,54.47,8.24,54.47,8.24,14.24,4.75,32.45,9.5,61.93,33.6l44.21-23.25C417.37-27.34,148.69,80.37,155.81,283.1c-3.56,100.59,60.55,177.49,142.65,211.95l-.23,125.86,47.49,22.58-1.12-134c55.31,11.73,114.23,4.91,164.02-25.26l-.22,113.18,50.03,22.58Z"/>
    <path class="cls-5" d="M568.49,605l-2.9-328.91-46.58,23.25-.21,110.57-.19-.08c-26.36,21.41-51.9,30.27-61.48,33.26,0,0-26.78,8.23-54.47,8.23-16.76,0-32.99-2.26-48.41-6.48l-1.22-145.26-44.21,23.25-.19,102.53c-53.41-32.01-89.16-90.45-89.16-157.24,0-101.18,82.02-183.2,183.2-183.2,27.29,0,54.47,8.24,54.47,8.24,14.24,4.75,32.45,9.5,61.93,33.6l44.21-23.25C427.43-42.32,158.74,65.39,165.87,268.12c-3.56,100.59,60.55,177.49,142.65,211.95l-.23,125.86,47.49,22.58-1.12-134c55.31,11.73,114.23,4.91,164.02-25.26l-.22,113.18,50.03,22.58Z"/>
  </g>
</svg>