<?xml version="1.0" encoding="UTF-8"?>
<svg id="Layer_1" data-name="Layer 1" xmlns="http://www.w3.org/2000/svg" viewBox="0 0 403.77 593.59">
  <defs>
    <style>
      .cls-1 {
        fill: #fff;
        opacity: .24;
        stroke: #183761;
        stroke-miterlimit: 10;
      }
    </style>
  </defs>
  <path class="cls-1" d="M403.26,569.29l-2.9-328.91-46.58,23.25-.21,110.57-.19-.08c-26.36,21.41-51.9,30.27-61.48,33.26,0,0-26.78,8.23-54.47,8.23-16.76,0-32.99-2.26-48.41-6.48l-1.22-145.26-44.21,23.25-.19,102.53c-53.41-32.01-89.16-90.45-89.16-157.24,0-101.18,82.02-183.2,183.2-183.2,27.29,0,54.47,8.24,54.47,8.24,14.24,4.75,32.45,9.5,61.93,33.6l44.21-23.25C262.2-78.03-6.49,29.68.64,232.41c-3.56,100.59,60.55,177.49,142.65,211.95l-.23,125.86,47.49,22.58-1.12-134c55.31,11.73,114.23,4.91,164.02-25.26l-.22,113.18,50.03,22.58Z"/>
</svg>