<?xml version="1.0" encoding="UTF-8"?>
<svg version="1.1" id="Layer_1" xmlns="http://www.w3.org/2000/svg" xmlns:xlink="http://www.w3.org/1999/xlink" x="0px" y="0px"
	 width="250px" height="102px" viewBox="0 0 250 102" enable-background="new 0 0 250 102" xml:space="preserve">
  <defs>
    <style>
      .cls-1 {
        fill: #fff;
      }

      .cls-2 {
        fill: #0059ab;
      }
    </style>
  </defs>
  <path class="cls-2" d="M203.67,44.16v13.49l.03.5-.52-.03h-6.54l-.52.03.03-.5v-12.3c0-3.59-2.06-5.3-4.61-5.3s-4.6,1.71-4.6,5.3v12.3l.02.5-.52-.03h-6.54l-.52.03.04-.5v-12.3c0-6.7,5.42-12.13,12.11-12.13,2.85,0,5.47.99,7.54,2.63l.15.45.14-.44c.22-.23.43-.45.67-.66l.44-.11-.41-.18c-1.79-2-2.89-4.63-2.89-7.51V.51l-.02-.51.52.02h6.53l.52-.02-.02.51v26.9c0,2.92,1.67,4.31,3.74,4.31s3.74-1.39,3.74-4.31V.51l-.03-.51.52.02h6.54l.51-.02-.04.51v26.9c0,2.88-1.1,5.51-2.88,7.51l-.42.18.45.11c.23.21.44.43.66.66l.15.44.14-.45c2.08-1.64,4.7-2.63,7.54-2.63,6.7,0,12.12,5.43,12.12,12.13v12.3l.04.5-.52-.03h-6.54l-.52.03.03-.5v-12.3c0-3.59-2.06-5.3-4.61-5.3s-4.61,1.71-4.61,5.3v12.3l.03.5-.51-.03h-6.54l-.52.03.04-.5v-13.49c0-3.72-2.15-5.49-4.78-5.49-2.64,0-4.77,1.77-4.77,5.49"/>
  <path class="cls-1" d="M56.24,91.32h6.92v-.74l-2.57-.6v-23.56h-7.11v.81l2.76.76v7.95c-1.21-1.01-3.04-1.84-5.47-1.84-4.32,0-7.5,3.8-7.5,9.07s2.91,8.53,7.54,8.53c2.26,0,4.13-.88,5.44-2.06v1.68M56.24,88.11c-.96.76-2.14,1.41-3.94,1.41-2.37,0-4.4-1.72-4.4-6.39s1.66-7.03,4.37-7.03c1.81,0,3.09.65,3.97,1.63v10.38Z"/>
  <polyline class="cls-1" points="121.33 66.42 121.33 67.18 118.73 67.88 118.73 89.87 121.33 90.54 121.33 91.32 110.52 91.32 110.52 90.52 113.98 89.87 113.98 72.35 105.91 91.32 104.03 91.32 96.1 72.27 96.1 89.87 99.43 90.43 99.43 91.32 91.61 91.32 91.61 90.54 93.83 89.91 93.83 67.84 91.61 67.18 91.61 66.42 98.57 66.42 106.31 85.48 114.26 66.42 121.33 66.42"/>
  <path class="cls-1" d="M132.19,74.11c-4.9,0-9.3,3.41-9.3,8.8s4.44,8.8,9.3,8.8,9.33-3.57,9.33-8.8c0-5.39-4.44-8.8-9.33-8.8M132.19,75.34c2.98,0,4.55,3.33,4.55,7.53s-1.57,7.61-4.55,7.61-4.55-3.44-4.55-7.61,1.61-7.53,4.55-7.53Z"/>
  <path class="cls-1" d="M222.23,79.31v2.87l-3.87.19c-3.73.11-6.07,2.14-6.07,4.94s2.1,4.4,4.89,4.4c2.29,0,3.94-1.12,5.05-1.91v1.53h6.34v-.74l-2.06-.6v-11.4c0-2.48-1.63-4.48-5.34-4.48s-6.16,1.08-7.49,1.65v3.93h1.88l.63-3.28c.44-.18,1.61-.59,3.49-.43,2.25.19,2.52,1.76,2.56,3.33M222.23,88.53c-.89.58-1.65,1.15-3.03,1.15-2.21.03-2.83-1.34-2.83-2.95s1.11-2.76,3.14-3.08l2.71-.31v5.2h0Z"/>
  <polyline class="cls-1" points="240 90.58 240 91.32 230.53 91.32 230.53 90.58 233.1 89.98 233.1 67.88 230.53 67.23 230.53 66.42 237.46 66.42 237.46 89.98 240 90.58"/>
  <path class="cls-1" d="M20.79,34.76l-3.71-.72v-.81h8.61v.76l-2.64.77v15.07c0,6.26-3.42,8.81-10.41,8.81s-10.09-2.75-10.09-8.42v-15.57l-2.56-.66v-.76h11.01v.84l-3.74.65v15.25c0,4.62,1.57,6.9,6.38,6.9,5.22,0,7.14-2.36,7.14-7.3v-14.81"/>
  <path class="cls-1" d="M35.61,57.4v.73h-9.29v-.73l2.52-.61v-14.23l-2.29-.66v-.79h6.66v2.6c.76-.65,3.17-2.79,6.27-2.79s4.86,1.79,4.86,4.93v10.89l2.45.62v.76h-9.02v-.76l2.25-.58v-10.44c0-1.65-.5-3.1-2.56-3.1-1.84,0-3.72,1.3-4.25,1.65v11.89l2.41.61"/>
  <polyline class="cls-1" points="55.21 56.79 57.74 57.4 57.74 58.12 48.29 58.12 48.29 57.4 50.86 56.79 50.86 42.56 48.56 41.9 48.56 41.11 55.21 41.11 55.21 56.79"/>
  <path class="cls-1" d="M55.45,35.25c0,1.31-1.14,2.37-2.52,2.37s-2.53-1.06-2.53-2.37,1.19-2.41,2.53-2.41,2.52,1.11,2.52,2.41"/>
  <polyline class="cls-1" points="130.33 56.79 132.86 57.4 132.86 58.12 123.4 58.12 123.4 57.4 125.97 56.79 125.97 42.56 123.68 41.9 123.68 41.11 130.33 41.11 130.33 56.79"/>
  <path class="cls-1" d="M130.55,35.25c0,1.31-1.14,2.37-2.51,2.37s-2.53-1.06-2.53-2.37,1.19-2.41,2.53-2.41,2.51,1.11,2.51,2.41"/>
  <polyline class="cls-1" points="59.12 42.29 57.89 41.8 57.89 41.11 66.16 41.11 66.16 41.8 63.51 42.45 67.31 52.81 71.07 42.37 68.77 41.8 68.77 41.11 74.43 41.11 74.43 41.8 73.06 42.45 66.58 58.39 65.17 58.39 59.12 42.29"/>
  <path class="cls-1" d="M79.47,48.57h11.25c-.12-4.7-2.56-7.65-7.5-7.65s-8.45,4.2-8.45,8.79c0,5.31,3.47,8.79,8.49,8.79,4.28,0,6.5-1.68,7.8-2.63l-.73-1.15c-.99.62-2.99,1.96-6.27,1.76-3.29-.23-4.94-3.68-4.59-7.92M86.43,47.22h-6.77c.38-2.91,1.53-5.05,3.56-5.05,2.3,0,3.05,2.68,3.21,5.05Z"/>
  <path class="cls-1" d="M119.98,41.79l-.38,4.17h-1.56l-.38-2.83c-.58-.31-1.34-.96-3.02-.96-1.38,0-2.45.73-2.45,2.22,0,1.77,1.95,2.46,3.9,3.34,1.88.8,4.94,1.95,4.94,4.97,0,3.44-2.83,5.81-6.23,5.81-3.15,0-4.97-.72-5.52-.92l-.3-4.62,1.6-.16.92,3.14c.46.34,1.73,1.34,3.25,1.3,2.18,0,3.21-1.15,3.21-2.8,0-1.95-2.71-2.79-4.51-3.63-1.68-.81-4.28-1.53-4.28-5.02,0-2.86,2.37-4.89,5.58-4.89,2.76,0,4.47.65,5.23.87"/>
  <polyline class="cls-1" points="161.83 35.49 160.18 33.04 154.34 37.63 155.29 39 161.83 35.49"/>
  <path class="cls-1" d="M151.66,48.57h11.24c-.12-4.7-2.56-7.65-7.5-7.65s-8.45,4.2-8.45,8.79c0,5.31,3.48,8.79,8.5,8.79,4.27,0,6.5-1.68,7.79-2.63l-.73-1.15c-.99.62-2.98,1.96-6.27,1.76-3.29-.23-4.93-3.68-4.59-7.92M158.61,47.22h-6.76c.38-2.91,1.53-5.05,3.55-5.05,2.3,0,3.07,2.68,3.22,5.05Z"/>
  <path class="cls-1" d="M105.1,40.94c-2.45,0-4.21,1.97-5.2,4.18h-.07v-4.01h-6.93v.7l2.57.74v14.23l-2.57.61v.73h10.64v-.84l-3.7-.6v-9.67c1.01-2.22,2.5-3.13,3.46-3.13.72,0,.98.14,1.54.62.2.16.92.37,1.37.17.82-.35,1.06-.97,1.06-1.86,0-.98-.96-1.86-2.15-1.86"/>
  <path class="cls-1" d="M152.53,90.58v.74h-9.29v-.74l2.52-.6v-14.22l-2.29-.66v-.79h6.65v2.6c.76-.66,3.17-2.8,6.26-2.8s4.86,1.81,4.86,4.94v10.89l2.45.6v.78h-9.02v-.78l2.26-.56v-10.44c0-1.64-.49-3.09-2.56-3.09-1.83,0-3.71,1.29-4.24,1.64v11.9l2.41.6"/>
  <path class="cls-1" d="M190.71,74.13c-2.45,0-4.21,1.97-5.21,4.19h-.07v-4.01h-6.92v.7l2.56.75v14.22l-2.56.6v.74h10.63v-.83l-3.7-.61v-9.67c1.01-2.23,2.51-3.14,3.46-3.14.71,0,.98.14,1.53.63.21.15.94.36,1.36.16.84-.36,1.07-.96,1.07-1.86,0-.98-.95-1.86-2.14-1.86"/>
  <path class="cls-1" d="M145.62,56.22c-.63.42-1.29.73-2.26.73-1.53,0-2.02-1.11-2.02-3.64v-10.72l4.36-.64v-.84h-4.36v-7.88h-1.43c-.28,4.51-1.88,7.47-5.91,7.88h-.66v.84l3.63.64v10.94c0,3.46.84,4.96,4.1,4.96,2.34,0,4.22-.87,4.99-1.6l-.43-.68"/>
  <path class="cls-1" d="M176.51,89.42c-.64.41-1.3.73-2.26.73-1.54,0-2.03-1.12-2.03-3.64v-10.72l4.36-.65v-.84h-4.36v-7.89h-1.43c-.29,4.5-1.88,7.47-5.91,7.89h-.67v.84l3.63.65v10.94c0,3.48.84,4.97,4.1,4.97,2.34,0,4.21-.88,4.98-1.6l-.43-.68"/>
  <path class="cls-1" d="M69.14,81.76h11.25c-.11-4.7-2.56-7.65-7.5-7.65s-8.45,4.21-8.45,8.8c0,5.32,3.48,8.8,8.48,8.8,4.28,0,6.51-1.68,7.8-2.64l-.73-1.15c-.99.61-2.98,1.96-6.27,1.76-3.29-.23-4.93-3.68-4.59-7.92M76.1,80.42h-6.77c.38-2.91,1.53-5.06,3.55-5.06,2.3,0,3.07,2.69,3.22,5.06Z"/>
  <path class="cls-1" d="M197.95,81.76h11.24c-.11-4.7-2.56-7.65-7.49-7.65s-8.46,4.21-8.46,8.8c0,5.32,3.47,8.8,8.49,8.8,4.28,0,6.5-1.68,7.8-2.64l-.74-1.15c-.99.61-2.98,1.96-6.27,1.76-3.29-.23-4.94-3.68-4.59-7.92M208.12,68.68l-1.64-2.45-5.85,4.59.96,1.37,6.54-3.51ZM204.91,80.42h-6.76c.38-2.91,1.52-5.06,3.56-5.06,2.29,0,3.05,2.69,3.21,5.06Z"/>
</svg>